<?xml version="1.0" encoding="utf-8"?>
<!-- Generator: Adobe Illustrator 28.0.0, SVG Export Plug-In . SVG Version: 6.00 Build 0)  -->
<svg version="1.1" id="Layer_1" xmlns="http://www.w3.org/2000/svg" xmlns:xlink="http://www.w3.org/1999/xlink" x="0px" y="0px"
	 viewBox="0 0 489.3 277.4" style="enable-background:new 0 0 489.3 277.4;" xml:space="preserve">
<style type="text/css">
	.st0{fill:#FFFFFF;}
</style>
<path class="st0" d="M441.5,228.2L441.5,228.2c0.2,0.1,0.3,0.1,0.4,0.1l0-0.1L441.5,228.2z"/>
<rect x="437.1" y="228.6" transform="matrix(0.9988 -4.928001e-02 4.928001e-02 0.9988 -10.7551 21.837)" class="st0" width="0.7" height="0.9"/>
<rect x="423.5" y="228.1" transform="matrix(0.9988 -4.949265e-02 4.949265e-02 0.9988 -10.7918 21.2559)" class="st0" width="0.7" height="0.8"/>
<path class="st0" d="M435.9,229.1L435.9,229.1c0.3-0.3,0.4-0.4,0.4-0.4l0-0.2C435.7,228.5,435.6,228.7,435.9,229.1"/>
<path class="st0" d="M441.9,228.3L441.9,228.3l0.1,0.2C442.1,228.4,442,228.3,441.9,228.3"/>
<path class="st0" d="M430.1,229.4l-0.1-1.2l-1.4,0.1l0,0.6l-0.4,0c-0.4,0.2-0.6,0.2-0.7,0.2c-0.4-0.2-0.6-0.3-0.6-0.1
	c-0.5,0-0.6-0.1-0.3-0.2c-0.3,0-0.5,0-0.7-0.1c-0.7,0.3-1,0.6-1,1l-0.6,0c-0.9-0.6-1.4-0.8-1.4-0.7c-0.1,0-0.1,0-0.1-0.1l0,0.1
	l0.2,0.5l-0.5,0.3c-0.5-0.4-0.8-0.6-1.1-0.6c-0.4,0.4-0.7,0.6-1.1,0.6l-0.5,0l0.2-0.9l-1.9,0.1c0.6,0.1,0.8,0.3,0.9,0.9
	c-0.5,0-0.9-0.3-1-0.9l-0.6,0c0.2,0,0.4,0,0.6,0c0-0.1-0.1-0.2-0.1-0.3l-0.5,0.1l-0.4,0.4l0.5,0c0,0.4-0.1,0.6-0.5,0.6
	c-0.9-0.7-1.7-1.1-2.3-1l0.3,0.3c0,0.2-0.1,0.4-0.1,0.9l-0.8,0l0-0.1l0-0.6l-0.3,0l-0.3-0.5l-3.8,0.2c-0.1,0-0.2,0.4-0.3,1.2l-0.6,0
	l0-0.5l0,0c-0.2-0.3-0.4-0.3-0.7-0.2l-0.8-0.3c-0.6,0.3-1.1,0.4-1.4,0.4c0-0.2-0.1-0.3-0.4-0.4l-1,0.3l-3.2,0.2
	c-0.5,0-1.4,0.1-2.5,0.3c0-0.1-0.1-0.2-0.3-0.2c-0.2,0.1-0.4,0.2-0.6,0.2l-0.8-0.4l-2.4,0.5l-0.3-0.2c-0.5,0.2-1,0.2-1.4,0.3
	c-0.5,0-1.2,0-2.1-0.1l-1.7,0.3c0,0.1,0,0.2,0.1,0.2c0-0.1-0.1-0.2-0.3-0.2l-2.1,0.1l-2,0.3l-0.2-0.4l-2,0.5l-1-0.1l-5.3,0.6
	l-1.2-0.3l0,0.1c-0.2,0-1.2,0-2.7,0c-0.3,0-0.6,0.1-0.9,0.4c-0.2,0-0.3,0-0.3,0.1c-3.3,0.2-4.1,0.1-2.6-0.1c-0.5,0-0.9,0-1.3-0.1
	c-0.4,0.1-0.8,0.2-1.3,0.2l-1.1,0.1c-0.3,0-0.5,0-0.7-0.1c-0.2,0.1-0.4,0.2-0.6,0.2l-1.9,0.1c-0.4,0-0.9,0.2-1.3,0.5
	c-0.7-0.2-1.4-0.3-2-0.3c-0.4,0-1.2,0.2-2.5,0.5l-0.3-0.1c-0.2,0.1-0.4,0.2-0.6,0.2l-0.6,0c-0.5,0-1.1,0-1.6-0.1
	c-1.9,0.3-3,0.5-3.2,0.7c-0.7,0-1.5,0-2.5-0.1l-0.8,0.2l-2.5,0.5c-8.7,1.1-13.3,1.8-13.8,2L327,236c-0.2,0-0.4-0.2-0.5-0.5
	c2-3.8,3-6,2.9-6.8c0-0.3-0.3-0.7-0.8-1.3l-0.9,0.2l-0.8-0.2l-0.2,0.2c-1,2.5-1.6,4-2,4.6c0,0.7-0.7,2.3-2.3,4.7
	c-3.4,0.5-9.5,2-18.3,4.4l-0.4,0.9l-0.1,1c0.3,0.6,0.9,1.1,1.9,1.5l13.8-3.3c0.2,0.1,0.4,0.2,0.6,0.2c0,0.4-0.3,1.4-1,2.9
	c-0.6,0.9-1,2.1-1.3,3.8c-0.7,0.9-1,2.1-1.1,3.7c-0.3,1-0.6,1.9-0.8,2.8c-0.1,0.1-0.2,0.1-0.3,0.2c-2.8,0.3-5.8,1.7-9,3.9
	c-1.5,1-2.6,1.7-3.1,2.3L303,261c-2.1-2.4-3.2-4.9-3.3-7.3c0-0.9,0.9-1.6,2.8-1.9c0.2,0,0.3,0.1,0.3,0.3c0,0.8-0.1,1.8-0.5,3.1
	c0.3,0.6,0.8,0.9,1.3,0.9c0.2-0.1,0.4-0.2,0.5-0.2c0.9,0,1.5-1.4,1.9-4c-0.1-1.6-1.1-2.5-3.1-2.8c-1.3,0.2-2.7,0.6-4.2,1.2
	c-1.4,0.1-2.2,1.3-2.3,3.8c0,0.2,0.1,0.5,0.1,0.8c-3.4,2.9-5.5,4.4-6.1,4.7c0.2-1.6,0.2-2.6,0-3.1c-0.9-1.6-1.4-2.4-1.5-2.3
	c-0.4-1-2.2-1.3-5.4-0.9l-0.5,0.1c-0.6,0.2-0.9,0.3-0.9,0.4c-1,0.3-1.9,0.7-2.6,1.2l0-0.4l-0.9,0l-0.1,0.7c-0.7,0.9-1.2,1.6-1.5,2.1
	c-3.8,5.2-6.5,7.9-8.1,7.9l-0.4,0c-0.1,0-0.3-0.5-0.6-1.6c0.3-3.6,0.5-5.6,0.4-6l0-0.2c-0.8-2.2-1.8-3.3-3.2-3.3l-2.7,1.1l-3.7,3.2
	c-1.3,1.7-2,2.5-2.1,2.5c-0.7,1-1.3,1.7-2,2.3c0.5-2.4,1.8-6.3,3.7-11.8c0.2-1.9,0.8-3.7,1.7-5.4c1.5-5.3,2.4-8.4,2.7-9.1
	c-0.3-0.3-0.8-0.6-1.3-0.7c-0.7,0-1.5,1.4-2.3,4.2c-3,8.4-4.7,13.3-5,14.6c-0.5,1.7-1.3,3.7-2.3,6.1l0.3,0c-1.3,4.2-2,6.4-2,6.7
	l0.1,0.7c-0.2,0-0.5,0.9-0.8,2.7c0,0,0-0.1,0-0.1c0,0.1,0,0.3-0.1,0.5c0.1,0.8,0.9,1.2,2.5,1.3c1.4-1.4,2.7-3.5,4-6.3
	c4.1-5.5,7.1-8.6,9-9.5c0.2,0,0.3,0.2,0.3,0.6c-0.3,3-0.5,4.9-0.4,5.8l0.2,2.1c1,2,2.4,2.9,4.2,2.8c1.1-0.1,2.6-0.9,4.5-2.6l2.3-2.3
	c0.1,0.2,0.1,0.5,0.2,0.7c0.4,0.7,0.7,1.4,1.1,1.9c1.8,1.9,3.8,2.5,6.1,1.9c0.4-0.2,0.7-0.4,1-0.5c1-0.8,2.5-2.2,4.3-4.3
	c0.9-0.3,2.1-0.9,3.4-1.8c2.2-1.9,3.8-3.5,4.8-4.8c0.7,1.7,1.8,3.7,3.6,6l0,0.3l-0.1,0.3c-3.5,3-5.9,5.3-7,6.8
	c-1.6,1.5-2.3,2.6-2.3,3.5l0,0.8c0.1,1.5,1.6,2.4,4.5,2.7c2.4-0.5,4.5-1.5,6.2-3.1c2.2-1.6,3.6-3.5,4.1-5.7
	c-0.1-1.8-0.6-3.4-1.5-4.8l0.6-0.8c4.4-2.7,7.6-4.7,9.7-6.1c-0.1,0.6-0.3,1.2-0.3,1.8c0,0.1,0.1,0.3,0.2,0.5
	c-0.1,0.7-0.1,1.3-0.1,1.8l0.1,1.1l-0.3,0.6l0,0.3c0.3,0.4,0.5,0.9,0.5,1.4l0,0.4l-0.1,0.3c0.6,0.7,0.9,1.3,0.9,1.8
	c1.1,1.2,2.8,1.9,5,2.2c1.9-0.1,4.2-1.2,6.9-3.2c1.3-0.9,2.3-1.7,3-2.4c0.9-0.4,2.2-1.6,3.8-3.5l0.1,0.6c1.3,3.3,3.6,4.9,7,4.7
	c0.6-0.2,1.2-0.3,1.7-0.4c3.4-0.8,6.2-2.7,8.5-5.5c0,0.4-0.1,0.8-0.1,1.3l0.3,1.9c1.3,2.8,3.3,4.1,5.9,3.9l0.8,0
	c3.6-0.2,7.5-2.4,11.5-6.8c2.9-2.7,4.6-5.6,5.2-8.6c0-0.2-0.2-0.3-0.7-0.5l-1.5,2.3c-2.2,2-3.4,3.2-3.6,3.7c-1.4,1.5-2.9,2.8-4.6,4
	c-2.5,2-4.8,3-7.1,3.1l-0.6,0c-1.4,0.1-2.2-0.5-2.4-1.8l-0.2-1.5c0.2-3.6,0.5-5.9,1-6.9c-0.1-0.6,1.6-1.7,5.1-3.3
	c3.2-2.3,5.7-4.7,7.2-7.3c1.3-1.6,2.2-4.4,2.6-8.2c0,0,0-0.1,0-0.1l2.9-0.4l0.8,0.3c0.6-0.2,1-0.3,1.4-0.3l0.6,0
	c2.3-0.1,5.1-0.4,8.4-0.8c0.2,0.1,0.4,0.2,0.5,0.2l2.2-0.7c0.7,0.2,1.2,0.3,1.5,0.3l0.6,0c0.7-0.3,1.2-0.4,1.3-0.4l1,0
	c0.5,0,0.9,0.1,1.2,0.2c0-0.2,0.3-0.3,0.9-0.3c0.3,0,0.5,0,0.7,0.1c0.5-0.1,1-0.2,1.4-0.2l3.6-0.2l0.3,0.1c1.3-0.7,2-1,2.2-1l0.2,0
	c0.3,0,0.7,0.1,1,0.3c0.1,0,0.4-0.2,0.7-0.6l0.3,0c0.2,0.3,1,0.5,2.5,0.6c1.1-0.3,1.8-0.5,2.1-0.5l0.8,0.1l0.6-0.4l1.2,0.1
	c0.3,0,0.8-0.1,1.4-0.3c0.1,0,0.2,0.1,0.3,0.1l0.1-0.2c0.2,0,0.3-0.1,0.5-0.1c0.2,0,0.3,0,0.3,0c0.5,0,0.7,0,0.7,0.2
	c1.3-0.2,2.1-0.4,2.3-0.7l0.3,0l0,0.4l1-0.1c0-0.1,0-0.3,0-0.4l0.9,0.2c0.2,0,0.4-0.2,0.7-0.4c0.3,0,0.6,0.1,1,0.2
	c0,0.3,0.4,0.2,1.1-0.3l0.2,0c0.5,0,1,0,1.7,0.1l0.6-0.4c0.6,0.1,1.1,0.1,1.5,0.1l0.8,0c0.1,0,0.4-0.1,1.1-0.4l0,0.4l1.4-0.1l0-0.1
	c0,0,0.1,0,0.1,0L430.1,229.4z M283,265.7c-0.7,0.2-1.3,0.3-1.8,0.2c-0.7-0.1-1.3-1-1.9-2.6l-0.1-0.4c-0.3-0.9-0.4-1.9-0.1-2.9
	l0.6-0.9c0-0.3,0.1-0.5,0.1-0.8c0.1-0.1,0.1-0.3,0.2-0.4l0,0c0.1,0.3,0.2,0.8,0.2,1.4c0.1,0.3,0.2,0.4,0.3,0.4
	c0.6,1.7,2.3,3.1,4.8,4.1C285.1,264.2,284.4,264.8,283,265.7 M287.3,261.1l-0.4,0.1c-1.5,0.5-2.7-0.3-3.7-2.3c-0.7-1.8,0-3,1.9-3.6
	c0.3-0.1,0.4-0.1,0.5,0.1c1-0.3,1.9,0.5,2.7,2.3C288.5,258.8,288.1,259.9,287.3,261.1 M302.5,270.8c-2.5,2.6-4.7,4-6.5,4
	c-0.7,0-1.1-0.1-1.2-0.4l0-0.2c-0.1-1.1,2.4-3.8,7.4-8.3l0.6,0c0.2,0.7,0.4,1.2,0.4,1.4l0.1,1.3C302.8,270,302.5,270.7,302.5,270.8
	 M344.9,251.3c-1,2.3-2.9,4-5.8,5.2c2-3.2,3.9-5.1,5.9-5.6c-0.1,0-0.1,0.1-0.1,0.2L344.9,251.3z M346.2,261.1
	c-1.4,0.6-2.9,1-4.4,1.2c-2.2,0.1-3.3-0.5-3.4-1.7l0-0.6l1.8-0.9c1.7-0.4,3.8-2.2,6.3-5.4c0.7-1.1,1-2.3,0.9-3.8
	c-0.9-0.9-1.6-1.3-2.3-1.3c-1.3,0.1-2.9,0.8-4.9,2.3c-0.4,0.4-0.8,0.8-1.2,1.1c0-0.2,0.1-0.4,0.1-0.6l-0.3-0.4
	c-1.7,2.8-3.2,5-4.6,6.6c-1,0.9-2.2,1.9-3.6,2.8c-4.6,3.4-7.8,5.1-9.6,5.2c-1.5,0.1-2.5-0.7-2.8-2.3l-0.1-1.7c-0.1-1.4,0-2.7,0.3-4
	c-0.1-0.2-0.2-0.4-0.2-0.6c0-0.3,0.9-3.5,2.6-9.7c1.6-3.4,2.3-5.3,2.3-5.6c0.7-1.3,1-2,1-2c10.8-1.7,19.8-2.9,26.7-3.7l1.6,0.1
	c0.3,0,0.8-0.2,1.6-0.5l1,0.2l5.5-0.6c0.2,0.1,0.5,0.2,0.8,0.2c1-0.3,1.8-0.5,2.4-0.5l0.3,0c-1.4,1.4-3,3.3-4.9,5.9
	c-2.5,3.2-3.8,5.5-3.7,6.7c-0.9,1.4-1.3,2.3-1.3,2.7c-0.5,0-0.8,0.4-1,1.2c-0.2,0.5-0.2,1.3-0.1,2c-0.4,0.6-0.8,1.2-1,1.8
	C349.6,258.6,347.6,260.5,346.2,261.1 M366,241.3c-1.7,3-4.3,5.5-7.7,7.5l-0.3-0.1c0.2-1.3,1.7-4.1,4.6-8.3c2.8-3.5,4.7-5.3,5.7-5.3
	l0.1,0.8C367.6,238.9,366.8,240.7,366,241.3"/>
<path class="st0" d="M418.1,229c0,0-0.1,0-0.2,0c0,0,0,0,0,0L418.1,229z"/>
<path class="st0" d="M432.1,228.3l0-0.2l-0.7,0l0,0.9l0.7,0l0-0.4c0.1,0.3,0.3,0.5,0.7,0.5l0-0.8L432.1,228.3z"/>
<path class="st0" d="M433.6,229c0.1,0,0.1,0.1,0.1,0.3l1.4-0.4l-1.9,0.1L433.6,229z"/>
<path class="st0" d="M133.6,209.6l0.5,2c0.8,2.8,2.6,4.2,5.2,4.1l0.6,0c2.8-0.1,6.5-2.3,11.3-6.7l0.6,0l0,0.4
	c1.5,3.2,3.6,4.7,6.4,4.6c2.9-0.1,6.3-2.8,10.2-8.1c-0.1,0.8-0.2,1.7-0.2,2.6l0.3,2.4c1.6,3.4,4,5.1,7.3,5l1,0
	c4.4-0.2,9.2-2.8,14.2-8.1v0c1.2,3.8,3.6,5.6,7.3,5.5l1,0c6.3-0.3,11.7-2.9,16.2-7.7c-0.9,2.7-1.3,4.2-1.3,4.4l0.1,0.9
	c-0.3,0-0.7,1.1-1.1,3.3c0,0,0,0,0,0c0,0.1-0.1,0.3-0.1,0.6c0.1,1,1.1,1.5,3,1.6c1.8-1.8,3.5-4.4,5-7.8c5.1-6.8,8.9-10.6,11.4-11.7
	c0.2,0,0.4,0.2,0.4,0.7c-0.5,3.7-0.7,6.1-0.6,7.2l0.2,2.6c1.2,2.5,2.9,3.7,5.2,3.6c1.1,0,2.6-0.8,4.5-2.3c0.9,2.1,2.5,3.1,4.8,3
	l0.6,0c2.8-0.1,6.5-2.3,11.3-6.7l0.6,0l0,0.4c1.5,3.2,3.6,4.7,6.4,4.6c1.9-0.1,4-1.2,6.3-3.5c0.2,0.5,0.4,1,0.9,1.6
	c1.1,1.8,3.1,2.7,5.8,2.6l0.4,0c0.8,0,2-0.3,3.6-0.9c0.3,0,0.4,0.1,0.4,0.4l0,0.8c-0.2,0.4-0.4,0.6-0.6,0.6
	c-2.5,8.3-3.7,13.4-3.6,15.3l0.4,0.8c-0.7,0.4-1,0.8-1,1.4l0.2,1c-0.5,0.3-0.8,1.3-0.7,3.1c0,0.3,0.1,0.6,0.2,0.8
	c-0.1,0.2-0.2,0.5-0.2,0.8l0,0.8c0.4,2,0.7,3,0.9,3c0.1,1.6,1.4,2.7,4.2,3.3c2.4-0.1,4.5-1.6,6.3-4.5c3.2-8.3,5.2-15.7,6-22
	c-0.1-0.3-0.2-0.5-0.2-0.6c0.3-0.7,0.6-1.5,0.7-2.7c-0.1,0-0.2-0.1-0.2-0.2l-0.1-1.4l1-0.2l0.6,0l0.4,0.2c0-0.1,0.1-0.2,0.2-0.2
	l0.4,0c3.2-1.6,5.6-3.2,7.2-4.6c2.3-2.6,3.9-4.6,5-5.7c0.3-0.3,0.6-0.7,0.9-1c-0.6,1.8-0.9,3.5-0.8,5.2l0,0.2
	c0.7,2.9,2.2,4.4,4.4,4.3c0.7,0,1.5-0.2,2.4-0.5c1.3,0,4-2.2,8-6.6c1.4,3.3,3.2,4.9,5.6,4.8l0.2,0c2.4-0.1,4.9-1.3,7.3-3.7
	c0.6-0.7,1-1.3,1.6-1.9c-0.1,0.5-0.2,1-0.3,1.5c0.1,0.8,0.3,1.2,0.4,1.2c0.1,4,2.6,6.2,7.3,6.6l2-0.5c2.8-0.8,6.2-3.3,10-7.2
	c3.3-4.1,5.4-7.9,6.5-11.5c0-0.2-0.1-0.4-0.4-0.4l-0.2,0c-0.4,0-1,0.3-1.8,0.9c-0.2,0.8-0.4,1.2-0.6,1.2c-3.3,3.9-5,5.8-5.2,5.8
	c-0.4,0.8-0.8,1.2-1.2,1.3c-4.4,4.2-7.5,6.3-9.3,6.4l-1.6,0.1c-0.8-0.4-1.3-1.1-1.3-2.2l-0.1-2.2c-0.1-2.7,0.9-6.2,3.1-10.6l0-0.6
	c-0.4-0.7-0.9-1-1.6-1l-0.4,0l-1.6,1.9c-0.5,0.5-1,1.2-1.4,1.9c-5.6,6.2-9.5,9.4-11.4,9.4c-0.7-0.5-1-0.8-1-1l-0.1-1.8
	c0.7-2.5,1.3-4.1,1.8-4.9c1.5-1.9,2.3-3,2.3-3.3c-0.4-0.7-0.6-1-0.8-1l-0.6,0c-0.7,0-1.5,0.2-2.4,0.5c-2.6,3.4-5,6.2-7,8.3
	c-3.9,3.5-6.5,5.3-7.9,5.3c-0.3-0.1-0.6-0.4-0.8-1c0.1-2.6,0.5-4.5,1-5.7c2.3-3.9,3.4-6.1,3.4-6.6c-0.8-0.5-1.5-0.8-2-0.7
	c-0.7,0.3-1.1,0.4-1.4,0.5c-0.2,0.3-0.5,0.6-0.7,0.9c-1.4,1.3-2.8,2.5-4.3,3.5c-4.1,4.5-8.2,7.9-12.5,10.4l-2.6,0.1l-0.4-0.2
	c-0.3-1.2-1.1-2.6-2.6-4.2c0-0.3,1.8-3,5.6-8.1l0-0.6l-1.1-1.4c-1.6-0.4-2.5-0.8-2.7-1.1c0-1.1-1.7-1.9-4.9-2.4l-3.6,1.1
	c-4.8,2.2-7.5,3.9-7.9,5.1c-1.9,1.8-3.3,3.5-4.3,5.1c-3.4,4-6,6-7.6,6.1l-1.2,0c-0.4,0-0.8-0.6-1.1-1.8l0-0.6
	c-0.1-2.4,0.8-5.3,2.5-8.8c0-0.1-0.1-0.2-0.2-0.2c0-1.2-0.9-1.8-2.7-1.7c-1.8-1.6-3.4-2.3-4.7-2.3c-2.4,0.3-3.6,0.7-3.6,1.1
	l-4.6,3.2l0.1-1.1l-1.2,0l-0.1,0.8c-0.9,1.1-1.6,2-1.9,2.6c0,0-0.1,0.1-0.1,0.1c-2.2,2-3.7,3.9-4.6,5.7c-2.4,2.6-4.2,3.9-5.5,4
	l-0.5,0c-0.2,0-0.4-0.7-0.7-2c0.5-4.5,0.7-7,0.6-7.5l0-0.2c-0.9-2.8-2.2-4.2-3.9-4.1l-3.4,1.3l-4.6,3.9c-1.6,2.1-2.5,3.1-2.6,3.1
	c-0.8,1.2-1.7,2.1-2.5,2.8c0.4-1.7,1-3.9,2-6.7c0,0,0,0,0,0l0,0c0.8-2.3,1.7-4.9,2.8-7.8c0.3-2.4,1-4.6,2.2-6.7
	c2-6.6,3.1-10.4,3.5-11.3c-0.4-0.4-1-0.7-1.6-1c-0.9,0-1.9,1.8-2.9,5.2c-3.9,10.4-6.1,16.4-6.5,18.1c-0.4,1.2-0.9,2.6-1.5,4.2
	c-0.2,0.1-0.3,0.2-0.5,0.2c-4.1,6-9.9,9.7-17.5,11.1c-3,0.1-4.6-0.5-4.6-1.8l-0.1-1.5c0-0.6,0.6-2.4,2-5.3c4.1-4.5,6.7-6.9,7.8-7.2
	c0,0.3-0.2,1.2-0.7,2.7c0.5,1.3,1.3,1.9,2.4,1.8c1.3,0,2.4-1.8,3.2-5.3l0-0.5c-0.1-1.5-1.1-2.3-3.3-2.5l-0.8,0
	c-1.3,0-4.3,2.2-8.8,6.3c0,0,0,0-0.1,0l-0.2,0.3c-0.2,0.2-0.4,0.3-0.5,0.5c-1.5,1.5-2.7,2.9-3.5,4.3c-1.2,1.1-1.9,2-2.1,2.3
	c-1.8,1.8-3.7,3.5-5.8,4.9c-3.1,2.4-6.1,3.7-8.9,3.8l-0.8,0c-1.8,0.1-2.7-0.7-2.9-2.3l-0.2-1.8c0.2-4.5,0.7-7.3,1.3-8.5
	c-0.1-0.7,2-2.1,6.4-4.1c4.1-2.8,7.1-5.8,9.1-9c1.6-2,2.8-5.4,3.3-10.2c-0.2-1.7-1.4-2.6-3.5-2.5c-2.5,0.1-6.2,3.5-11.1,10.1
	c-3.2,4-4.8,6.7-4.8,8.3c-1.2,1.7-1.7,2.8-1.7,3.3c-0.6,0-1,0.5-1.3,1.4c-0.2,0.7-0.2,1.6-0.2,2.6c-1.4,1-2.1,1.7-2.1,2
	c-4.3,5.3-7.3,7.9-9.2,8l-1.2,0c-0.4,0-0.8-0.6-1.1-1.8l0-0.6c-0.1-2.4,0.8-5.3,2.5-8.8c0-0.1-0.1-0.2-0.2-0.2
	c0-1.2-0.9-1.8-2.7-1.7c-1.8-1.6-3.4-2.3-4.7-2.3c-4.4,0.3-8.1,2.8-12.1,6.4c-3.3,2.3-6.2,4.8-9,7.1l-0.8,0.8
	c-8.5,8-14.9,13.5-19.2,16.6c-10.7,7.6-21.2,11.5-21.2,11.5c-3.3,1.6-7.3,2.4-12,2.6c-3.3-0.1-5.7-0.5-7.2-1
	c-4.5-1.9-7.1-4.5-7.9-7.8c-1.3-5.5,1.9-13.9,9.7-25.2c4.1-5.1,9.4-10.4,15.7-16.1c2.3-2.1,6.5-5,12.5-8.6c4.2-2.4,7-3.6,8.3-3.6
	l0.8,0l0.1,0.6c0.1,0.3,0,0.4-0.3,0.4c-1.1,3.8-1.4,6.8-0.8,9c1,2.3,2.8,4.9,8.7,6.1c0-0.1,0-0.2,0.1-0.2l0.8,0
	c1.8-0.1,3.2-0.4,4.2-1c6.1-2.8,10.1-5.5,12.2-8.2c2-1.4,3.2-3.5,3.5-6.3c-0.3-0.7-0.6-1.3-0.7-1.9c-2.6-3.9-7.8-5.7-15.3-5.4
	l-0.6,0l-0.1-0.2c0.2-0.7,2.5-2.3,6.6-4.8c0.4,0,0.9,0,1.4,0.2c1-0.4,1.4-0.8,1.3-1.3c0-0.1-0.1-0.2-0.3-0.2
	c-0.4-1.4-1.3-2.3-2.9-2.7c-5.7,2.3-8.4,7.9-13.2,9.6c-42.3,15.2-53.8,45.5-56,51.8c-0.3,0.8-1.1,2.7-1.3,6.4l0.4,0.9l0.3,1.8
	c0.3,0.4,0.5,0.6,0.7,0.6c0.1,0.3,0.1,0.5,0,0.8c0.6,2.3,3,4.9,7.4,7.7c2,1.5,5.5,2.5,10.5,3c0.6,0,1.1-0.2,1.5-0.5l1.1,0.4l0.7-0.2
	l1.3,0.2c1.1-0.4,3.5-0.9,7.2-1.6c6.1-2.4,9.1-3.7,9-4.1l6.1-3c2.4-1.9,4.3-3.1,5.7-3.8c5-4,8.9-7,11.6-9.3c2.7-2.2,5.9-5.4,9.6-9.4
	L133.6,209.6z M292.5,210l0,1.2l-0.2,1.2c0.1,0.3,0.2,0.5,0.2,0.6c0,0.3-0.6,3.5-1.8,9.6c-2.3,8.3-4.6,13.2-6.9,14.8l-0.6,0
	c-0.3-1.1-0.6-2.7-0.8-4.8c0.8-4.7,1.1-7.6,1.1-8.7l0-0.2c0-0.1,0.1-0.2,0.2-0.2c1.1-6.4,3-11.6,5.6-15.6l0.2,0
	C291.5,209.2,292.5,209.9,292.5,210 M290.4,191.7l0.2,0c0.7,0.4,1.2,1,1.5,1.6c0,0.5-0.2,1-0.8,1.6l0,0.4l0.2,0.4
	c-0.5,0.5-1.7,2.4-3.6,5.6c-3.9,3.8-7,5.7-9.5,5.8c-0.9,0-1.5-0.3-1.9-0.9l0-1.2c0-0.9,0.5-2.4,1.7-4.5
	C282.8,194.8,286.9,191.9,290.4,191.7 M181.8,183.3c3.5-4.3,5.9-6.5,7.2-6.5l0.1,1c-1.1,3.7-2.2,6-3.1,6.8c-2.2,3.7-5.4,6.8-9.7,9.2
	l-0.4-0.2C176.2,192,178.1,188.6,181.8,183.3 M111.9,182.9c-0.2-1.3,0.7-3.7,2.8-7.4c-0.1-0.6,2.5-1.1,7.8-1.6l3.1-0.1
	c4.5,0.5,7,1.6,7.4,3.3l0.2,1.2c0,0.2-0.7,1.1-2.1,2.7c-1.2,1.6-2.8,2.9-5.1,4c-4.2,2.6-7.3,4-9.4,4.1l-1.6,0.1
	c-1.9-0.2-3-0.9-3.4-2.3l-0.1-0.6C111.4,184.9,111.5,183.9,111.9,182.9 M149,206c-4,4-7.2,6.1-9.7,6.2l-0.4,0
	c-0.2,0-0.4-0.1-0.4-0.4l-0.1-1.4c0.2-1.6,0.9-3.3,2-5.1c3.6-4.2,7-6.9,10.2-8c1.2,0,1.8,0.7,1.9,2.4l0,0.2
	C152.7,201.2,151.5,203.2,149,206 M247.2,208.3l-0.4,0c-0.2,0-0.4-0.1-0.4-0.4l0-1.4c0.1-0.6,0.2-1.2,0.4-1.8l0.3-0.2l3.5-5.1
	c0-0.1,0-0.2,0-0.3c2.8-2.8,5.5-4.7,8-5.7c1.2,0,1.8,0.7,1.9,2.4l0,0.2c0,1.4-1.2,3.5-3.6,6.2C252.9,206.1,249.7,208.2,247.2,208.3"
	/>
<path class="st0" d="M347.8,182c1,0,2.4-0.7,4.4-2c3.9-2.8,6-5,6.4-6.5l0-0.6c-0.1,0-0.8-0.1-2.2-0.3c-1.9,0.9-3.3,1.7-4.4,2.6
	c-4.2,2.2-6.3,3.9-6.3,4.9C345.7,181.2,346.4,181.9,347.8,182"/>
<path class="st0" d="M388.3,138.3l-14.5-0.6c-0.6,0-1,0.4-1,1l-0.1,2.9c0,0.6,0.4,1,1,1l14.5,0.6c0.6,0,1-0.4,1-1l0.1-2.9
	C389.3,138.8,388.9,138.3,388.3,138.3"/>
<path class="st0" d="M381.6,109.9l-21.1-1.1c-0.6,0-1,0.4-1,1l-0.1,2.9c0,0.6,0.4,1,1,1.1l21.1,1.1c0.6,0,1-0.4,1.1-0.9l0.1-2.9
	C382.6,110.4,382.1,110,381.6,109.9"/>
<path class="st0" d="M394.9,62.5l-17.7-1.8c-0.6-0.1-1,0.3-1.1,0.9l-0.3,2.9c-0.1,0.6,0.3,1,0.9,1.1l17.7,1.8c0.5,0.1,1-0.3,1.1-0.9
	l0.3-2.9C395.8,63,395.4,62.5,394.9,62.5"/>
<path class="st0" d="M409.7,82.3l-17.8-1.5c-0.6,0-1,0.4-1.1,0.9l-0.2,2.9c0,0.6,0.4,1,0.9,1.1l17.8,1.5c0.5,0,1-0.4,1.1-0.9
	l0.2-2.9C410.6,82.8,410.2,82.3,409.7,82.3"/>
<path class="st0" d="M371.6,75.4l-17.8-1.2c-0.6,0-1,0.4-1.1,0.9l-0.2,2.9c0,0.6,0.4,1,0.9,1.1l17.8,1.2c0.6,0,1-0.4,1.1-0.9
	l0.2-2.9C372.6,75.9,372.2,75.4,371.6,75.4"/>
<path class="st0" d="M363.4,56.5l-21.1-2.1c-0.5-0.1-1,0.3-1.1,0.9l-0.3,2.9c-0.1,0.5,0.3,1,0.9,1.1l21.1,2.1c0.6,0.1,1-0.4,1.1-0.9
	l0.3-2.9C364.3,57,363.9,56.5,363.4,56.5"/>
<path class="st0" d="M376.7,125.4l-32.7-1.3c-0.6,0-1,0.4-1,1l-0.1,2.9c0,0.6,0.4,1,1,1l32.7,1.3c0.6,0,1-0.4,1-1l0.1-2.9
	C377.7,125.9,377.2,125.4,376.7,125.4"/>
<path class="st0" d="M394.8,91.1L364,88.8c-0.6,0-1,0.4-1.1,0.9l-0.2,2.9c0,0.6,0.4,1,0.9,1.1l30.8,2.2c0.6,0,1-0.4,1.1-0.9l0.2-2.9
	C395.8,91.6,395.4,91.1,394.8,91.1"/>
<path class="st0" d="M337.5,11l-3.4-0.6c-0.5-0.1-1.1,0.3-1.2,0.8l-0.5,2.9c-0.1,0.5,0.3,1.1,0.8,1.2l3.4,0.6
	c0.5,0.1,1.1-0.3,1.2-0.8l0.5-2.9C338.5,11.6,338.1,11.1,337.5,11"/>
<path class="st0" d="M463.3,155.4c0.7-5.5,0.2-17.7,0.5-22.4c0.1-1.5,0-3,1.5-4c5.9-3,6.1-16.2,6.3-18.6c0.1-0.7,0.1-1.4,0.1-2.1
	c-0.1-1.2-0.6-2.2-1.9-2.4c-1.4-0.2-2,0.8-2.2,2c-0.5,2.5-2.1,11.5-2.5,13.5c-0.2,0.7-0.4,1.8-1.4,1.6c-0.9-0.2-0.6-1.2-0.6-1.8
	c0-6.2,0-12.3,0-18.4c0-1.8-0.2-3.6-0.9-5.3c-0.5-1.1-1.2-1.9-2.5-1.8c-1.2,0.1-1.7,1-2,2c-1,3.2-1.1,6.5-1.1,9.8
	c-0.1,7.6-1,9.7,0,23.8c0.1,1.1-1.3,1.2-1.6,0.3c-0.1-0.5-1.3-2.4-1.8-11.2c-0.1-0.9-0.2-1.7-0.4-2.6c-0.3-1.3-0.9-2.5-2.5-2.3
	c-1.5,0.2-2,1.4-2.1,2.7c-0.1,1.7-0.1,9.7,2.1,17.4c0.6,2,1.4,3.6,3.2,4.8c2.8,1.9,3.9,4.7,4.1,8c0.1,1.9-0.3,4.1-0.4,6.3
	c-10.3-1.1-20.9-2.2-31.6-3.2l-2.5-73.6c0.2-10.1-5.9-19.5-15.3-23.3l-49.8-9.8V5.4l-31.6-5.3L324.8,0l-0.1,0.1
	c-1.1-0.3-2.4-0.1-3.4,0.6l-13.2,8.8V35c-20.4-3.5-78.6-12.5-156-15.1l0,1C147,24.4,119.8,50.1,98,92.7l-0.3,0.5l-0.9,48.5
	c-17.7,0.6-34.9,1.3-51.6,2.2c0,0,0.1-0.1,0.1-0.1c2.2-0.7,1.2-22.2,1.7-29.2c0.1-1.7,0-3.5,1.7-4.6c6.9-3.5,7.1-18.9,7.3-21.6
	c0.1-0.8,0.2-1.7,0.1-2.5c-0.1-1.4-0.7-2.5-2.2-2.7c-1.6-0.2-2.3,0.9-2.6,2.3c-0.6,2.9-2.4,13.3-2.9,15.7c-0.2,0.9-0.5,2.1-1.6,1.8
	c-1-0.2-0.7-1.4-0.7-2.1c0-7.1,0-14.3,0-21.4c0-2.1-0.2-4.2-1.1-6.2c-0.6-1.2-1.4-2.2-2.9-2.1c-1.4,0.1-2,1.2-2.4,2.3
	c-1.1,3.7-1.3,7.6-1.3,11.4c-0.1,8.9-1.1,11.3,0,27.7c0.1,1.3-1.5,1.4-1.8,0.3c-0.1-0.5-1.5-2.7-2.1-13c-0.1-1-0.3-2-0.5-3
	c-0.4-1.5-1.1-2.9-2.9-2.7c-1.8,0.2-2.3,1.6-2.4,3.2c-0.1,1.9-0.1,11.3,2.5,20.3c0.7,2.3,1.6,4.2,3.7,5.5c3.3,2.2,4.6,5.4,4.8,9.4
	c0.1,3.2-1,7.3-0.2,10.6c0.1,0.5,0.4,0.8,0.9,1C26.3,145,12.9,146,0,147.1l0.4,4.9c142.6-12.1,348-7.2,488.3,11.5l0.7-4.9
	C480.9,157.5,472.1,156.4,463.3,155.4 M327,26.3l15.1,2.4c0.6,0.1,1.1-0.3,1.1-0.8l0.5-2.9c0.1-0.5-0.3-1.1-0.8-1.1l-15.4-2.4
	c-0.1,0-0.2,0-0.3,0l0-0.8l0.7-15.1l24.8,4.1v5.6l-8.7-1.4c-0.5-0.1-1.1,0.3-1.2,0.8l-0.5,2.9c-0.1,0.5,0.3,1.1,0.8,1.2l9.5,1.6
	v11.2l-7-1.2c-0.5-0.1-1.1,0.3-1.2,0.8l-0.5,2.9c-0.1,0.5,0.3,1.1,0.8,1.2l7.9,1.3v6.1l-26.3-4.2L327,26.3z M313.1,30.5l5.6-0.1
	c0.6,0,1-0.5,1-1l-0.1-2.9c0-0.6-0.5-1-1-1l-5.4,0.1V12.2l9.8-6.5l-0.3,7l-5.3,0.2c-0.6,0-1,0.5-1,1l0.1,2.9c0,0.6,0.5,1,1,1
	l4.8-0.2l-0.1,1.6l-0.8,16.9l-8.4-1V30.5z M199.6,140.6c-33.3-0.3-66.2,0.1-97.8,1l0.9-47.1c20.2-39.3,43.6-62.1,50.2-68l42,50.8
	c3.5,4.9,5.3,10.6,5.2,16.6L199.6,140.6z M198.7,74.3l-40.6-49.2c88.3,3.4,150.1,14.9,156.5,16.1c13.9,10.5,31.9,43.3,37.9,56
	c-56-21.9-119.6-19.2-150.8-17.8C200.9,77.6,199.9,75.9,198.7,74.3 M257,140.5h-31.4v-28.8c0-5,2.4-10.1,6.4-13.2
	c3.1-2.5,6.8-3.4,10.4-2.5c10.4,2.5,14.6,10.8,14.6,28.8V140.5z M285.1,142.2v-26.5c0-4.6,2.2-9.3,5.9-12.1c2.9-2.3,6.3-3.1,9.5-2.3
	c9.7,2.3,13.5,9.7,13.5,26.6l0.7,15.8L285.1,142.2z M319.6,144l-0.7-16.2c0-13.4-2.1-27.6-17.3-31.3c-4.8-1.1-9.7,0-13.8,3.3
	c-4.8,3.8-7.7,9.9-7.7,16v26.5c-6-0.2-12.1-0.4-18.2-0.6v-16.9c0-14.5-2.2-29.8-18.4-33.6c-5.1-1.2-10.3,0-14.6,3.5
	c-5.1,4-8.2,10.5-8.2,17v29.2c-5.4-0.1-10.8-0.1-16.1-0.2l0.4-46.7c0-3.3-0.4-6.6-1.4-9.7c28-1.2,80.1-3.1,129.4,11.5l1.5,49
	C329.6,144.5,324.6,144.2,319.6,144 M339.5,145L338,97.3c6.1,1.9,12.1,4.1,18,6.6l2.1,0.9l1.1-1.9c1.6-2.8-10.1-23.2-13.8-29.4
	c-5.8-9.8-13.6-22-21.4-30.3l82,16.1c5,2.1,8.8,6.2,10.7,11.1l-14.7-1.5c-0.5-0.1-1,0.3-1.1,0.9l-0.3,2.9c-0.1,0.6,0.3,1,0.9,1.1
	l16.4,1.6c0.1,0.8,0.1,1.6,0.1,2.4l0.9,25.7l-15.3-1.3c-0.6,0-1,0.4-1.1,0.9l-0.2,2.9c0,0.6,0.4,1,0.9,1.1l15.9,1.3l0.3,10.1
	l-23.9-1.7c-0.6,0-1,0.4-1.1,0.9l-0.2,2.9c0,0.6,0.4,1,0.9,1.1l24.4,1.8l0.2,6.8l-6.2-0.3c-0.6,0-1,0.4-1,1l-0.1,2.9
	c0,0.6,0.4,1,1,1l6.6,0.3l0.2,6.8l-18.1-1.1c-0.6,0-1,0.4-1.1,0.9l-0.2,2.9c0,0.6,0.4,1,0.9,1.1l18.6,1.1l0.1,3.8
	C394.4,148.6,367.3,146.6,339.5,145"/>
<path class="st0" d="M135.8,85.4l-18.2,3.8c-1.5,0.3-2.6,1.7-2.6,3.2v29.7c0,1,0.4,1.9,1.2,2.5c0.6,0.5,1.4,0.8,2.1,0.8
	c0.2,0,0.4,0,0.5,0l18.2-3c1.6-0.3,2.8-1.6,2.8-3.3V88.6c0-1-0.4-1.9-1.2-2.6C137.8,85.4,136.7,85.2,135.8,85.4 M134.8,117.7
	l-14.9,2.5V93.8l14.9-3.1V117.7z"/>
<path class="st0" d="M175.7,80.3l-18.2,2.3l0,0c-1.6,0.2-2.9,1.6-2.9,3.3v33c0,0.9,0.4,1.8,1.1,2.4c0.6,0.6,1.4,0.9,2.2,0.9
	c0.1,0,0.2,0,0.3,0l18.2-1.5c1.7-0.1,3-1.6,3-3.3V83.6c0-0.9-0.4-1.9-1.1-2.5C177.5,80.5,176.6,80.2,175.7,80.3 M174.4,115.9
	l-14.9,1.2V87.3l14.9-1.9V115.9z"/>
<path class="st0" d="M209.1,69.4c-6.6-24.8-33-38-33-38L209.1,69.4z"/>
<path class="st0" d="M255.3,74.4c-6.6-24.8-33-38-33-38L255.3,74.4z"/>
<path class="st0" d="M283.4,76.1c-6.6-24.8-33-38-33-38L283.4,76.1z"/>
<path class="st0" d="M311.5,79.4c-6.6-24.8-33-38-33-38L311.5,79.4z"/>
<path class="st0" d="M331.3,81c-6.6-24.8-33-38-33-38L331.3,81z"/>
<path class="st0" d="M233.9,72.8c-3.3-23.1-38-39.6-38-39.6L233.9,72.8z"/>
</svg>
