<?xml version="1.0" encoding="UTF-8"?><svg id="Layer_2" xmlns="http://www.w3.org/2000/svg" viewBox="0 0 249.999 45.679"><defs><style>.cls-1{fill:#fff;}</style></defs><g id="Layer_1-2"><path class="cls-1" d="m155.517,34.767c-.021-.002-.044-.001-.067-.002,0,.003.002.005.002.007l.065-.006Z"/><path class="cls-1" d="m32.974,30.188l.222.847c.399,1.192,1.162,1.75,2.288,1.674l.259-.018c1.184-.079,2.771-1.085,4.759-3.017l.259-.017.013.172c.685,1.347,1.627,1.981,2.826,1.901,1.24-.085,2.668-1.295,4.278-3.604-.029.347-.047.718-.05,1.121l.156,1.036c.722,1.46,1.783,2.144,3.183,2.049l.433-.03c1.904-.127,3.905-1.347,6-3.651v.007c.559,1.617,1.632,2.371,3.22,2.265l.412-.027c2.691-.224,4.972-1.41,6.843-3.545-.332,1.163-.497,1.81-.49,1.921l.046.367c-.13.009-.271.49-.425,1.443.01-.002.012-.01.019-.012-.01.065-.02.14-.025.251.044.432.485.649,1.327.651.745-.788,1.431-1.923,2.057-3.402,2.121-2.971,3.703-4.694,4.745-5.17.1-.007.165.09.194.292-.154,1.605-.201,2.639-.14,3.099l.14,1.123c.535,1.051,1.3,1.544,2.298,1.477.492-.033,1.127-.389,1.89-1.032.431.876,1.114,1.309,2.085,1.244l.259-.017c1.184-.079,2.771-1.085,4.759-3.017l.259-.018.013.174c.684,1.347,1.627,1.98,2.825,1.899.806-.053,1.691-.584,2.652-1.576.082.206.2.421.398.654.517.779,1.351,1.127,2.507,1.05l.174-.011c.346-.024.858-.174,1.537-.451.114-.008.176.046.184.162l.024.346c-.075.18-.155.272-.242.277-.948,3.619-1.393,5.823-1.341,6.619l.196.335c-.278.163-.41.375-.392.635l.116.428c-.223.13-.311.573-.26,1.321.009.131.046.246.11.342-.05.106-.073.222-.063.352l.023.347c.189.858.333,1.283.435,1.276.044.679.655,1.132,1.831,1.356,1.039-.07,1.923-.737,2.65-2.005,1.267-3.624,2.024-6.808,2.275-9.553-.065-.112-.1-.195-.103-.254.139-.285.23-.667.271-1.149-.059.004-.089-.023-.093-.08l-.04-.606.428-.117.26-.016.178.075c-.004-.058.023-.089.08-.092l.175-.013c1.37-.744,2.383-1.436,3.036-2.075.937-1.165,1.636-2.01,2.093-2.534.128-.146.243-.291.361-.436-.231.774-.331,1.529-.281,2.259l.006.086c.344,1.255.994,1.849,1.946,1.785.29-.02.631-.1,1.029-.244.55-.036,1.673-1.011,3.372-2.924.632,1.408,1.459,2.078,2.485,2.009l.087-.007c1.039-.07,2.075-.632,3.106-1.687.237-.295.43-.563.642-.842-.031.205-.062.412-.089.63.068.344.135.515.207.511.116,1.733,1.193,2.646,3.231,2.742l.856-.231c1.206-.399,2.613-1.482,4.22-3.243,1.36-1.789,2.235-3.472,2.622-5.049-.007-.101-.069-.156-.185-.164l-.087.006c-.173.011-.425.146-.757.399-.063.352-.137.532-.223.537-1.365,1.716-2.091,2.578-2.178,2.583-.151.358-.313.543-.485.555-1.834,1.864-3.134,2.822-3.899,2.872l-.693.047c-.359-.164-.553-.471-.584-.918l-.064-.953c-.078-1.155.313-2.69,1.171-4.605l-.018-.259c-.163-.279-.404-.408-.722-.387l-.173.011-.642.828c-.214.228-.408.517-.585.856-2.344,2.742-3.939,4.148-4.777,4.203-.305-.197-.457-.331-.462-.403l-.053-.78c.277-1.077.518-1.79.727-2.138.64-.854.955-1.339.947-1.455-.164-.28-.289-.416-.376-.41l-.26.016c-.29.02-.631.1-1.028.243-1.088,1.509-2.051,2.734-2.887,3.676-1.636,1.559-2.744,2.36-3.32,2.398-.117-.021-.243-.157-.376-.41.025-1.132.143-1.954.357-2.461.93-1.716,1.387-2.674,1.373-2.878-.348-.208-.644-.305-.89-.288-.281.136-.479.206-.594.214-.102.139-.191.276-.286.415-.586.58-1.184,1.106-1.802,1.552-1.682,1.972-3.42,3.508-5.217,4.616l-1.128.075-.178-.074c-.137-.527-.524-1.112-1.162-1.752-.007-.115.755-1.297,2.286-3.547l-.016-.26-.475-.577c-.678-.172-1.065-.321-1.161-.445-.031-.461-.749-.789-2.155-.986l-1.53.538c-2.052.994-3.16,1.764-3.327,2.312-.779.786-1.364,1.539-1.774,2.26-1.418,1.756-2.478,2.66-3.179,2.707l-.52.034c-.173.012-.336-.238-.486-.75l-.017-.259c-.069-1.025.253-2.294.963-3.807-.003-.058-.034-.085-.092-.08-.035-.52-.428-.755-1.179-.705-.798-.643-1.486-.944-2.062-.906-1.035.158-1.545.335-1.532.538l-1.943,1.444.029-.465-.499.032-.041.349c-.388.492-.645.88-.77,1.163-.012.016-.021.028-.032.045-.9.868-1.541,1.704-1.91,2.505-.988,1.149-1.754,1.746-2.294,1.782l-.217.014c-.072.006-.187-.278-.34-.847.147-1.926.205-3.002.176-3.234l-.007-.086c-.428-1.19-1.004-1.76-1.726-1.711l-1.439.597-1.929,1.739c-.664.914-1.024,1.375-1.082,1.378-.346.536-.694.937-1.043,1.235.143-.719.399-1.69.766-2.904.004-.002.01-.01.012-.01l-.004-.017c.297-.979.661-2.108,1.102-3.407.105-1.037.387-2.006.848-2.908.75-2.866,1.207-4.505,1.368-4.922-.185-.161-.427-.291-.722-.387-.376.025-.775.778-1.196,2.257-1.538,4.528-2.387,7.151-2.541,7.871-.144.534-.346,1.145-.594,1.817-.082.053-.146.083-.192.086-1.681,2.638-4.144,4.312-7.389,5.023-1.3.088-1.969-.151-2.006-.714l-.043-.628c-.018-.274.241-1.047.782-2.316,1.694-1.971,2.784-3.037,3.265-3.199.01.129-.073.519-.248,1.17.225.535.575.788,1.051.755.577-.038,1.012-.814,1.302-2.328l-.013-.194c-.043-.637-.522-.982-1.44-1.037l-.324.023c-.573.038-1.808.989-3.69,2.832-.015-.005-.021-.01-.037-.014l-.074.123c-.078.076-.15.145-.23.225-.627.646-1.11,1.276-1.462,1.891-.507.51-.811.865-.865,1.028-.729.817-1.535,1.546-2.423,2.186-1.305,1.087-2.557,1.673-3.755,1.753l-.346.023c-.752.051-1.179-.269-1.283-.958l-.117-.777c.044-1.931.193-3.159.449-3.685-.05-.315.853-.926,2.707-1.834,1.713-1.261,2.981-2.594,3.801-3.999.681-.871,1.111-2.352,1.29-4.437-.109-.747-.624-1.091-1.548-1.027-1.083.071-2.623,1.567-4.617,4.486-1.319,1.757-1.964,2.961-1.934,3.612-.472.757-.694,1.235-.665,1.436-.26.016-.441.23-.545.634-.075.298-.077.682-.043,1.108-.575.457-.875.765-.866.901-1.759,2.324-3.043,3.511-3.852,3.566l-.52.034c-.173.011-.336-.238-.486-.749l-.017-.26c-.069-1.027.252-2.294.963-3.808-.004-.058-.034-.085-.092-.08-.035-.519-.428-.755-1.179-.705-.798-.643-1.485-.944-2.062-.906-1.869.17-3.441,1.315-5.095,2.917-1.397,1.05-2.59,2.14-3.757,3.188l-.335.341c-3.549,3.532-6.227,5.995-8.033,7.393-4.5,3.428-8.962,5.236-8.962,5.236-1.417.719-3.123,1.144-5.115,1.278-1.424-.019-2.46-.124-3.112-.314-1.948-.739-3.117-1.829-3.505-3.267-.648-2.335.63-5.982,3.836-10.941,1.708-2.233,3.883-4.604,6.529-7.118.982-.937,2.738-2.222,5.268-3.857,1.784-1.077,2.959-1.635,3.522-1.672l.346-.023.059.236c.037.113-.003.173-.117.181-.412,1.637-.493,2.927-.241,3.867.456.957,1.29,2.051,3.821,2.486-.017-.056.004-.088.06-.091l.326-.023c.78-.052,1.377-.208,1.796-.469,2.569-1.289,4.277-2.513,5.129-3.672.856-.623,1.331-1.54,1.426-2.751-.151-.295-.256-.571-.317-.827-1.184-1.632-3.407-2.34-6.67-2.12l-.239.016-.028-.085c.094-.326,1.026-1.04,2.794-2.146.173-.011.377.004.614.046.408-.172.591-.359.549-.559-.018-.056-.057-.083-.113-.078-.171-.584-.594-.954-1.273-1.112-2.438,1.077-3.516,3.503-5.563,4.312C5.883,20.889,1.337,34.086.466,36.82c-.112.353-.429,1.174-.466,2.772l.2.401.139.775c.127.165.234.245.32.239.037.113.037.222,0,.326.27.982,1.37,2.048,3.303,3.195.897.607,2.417.991,4.56,1.152.246-.016.459-.089.638-.218l.467.144.319-.109.547.051c.453-.175,1.472-.439,3.059-.793,2.594-1.101,3.873-1.731,3.833-1.89l2.563-1.367c1.003-.837,1.799-1.405,2.388-1.706,2.116-1.766,3.735-3.147,4.857-4.145,1.122-.996,2.451-2.388,3.985-4.173l1.794-1.286Zm68.296-1.912l.035.519-.051.527c.064.11.099.196.104.253.008.116-.205,1.493-.636,4.134-.863,3.583-1.792,5.733-2.788,6.454l-.26.018c-.147-.455-.28-1.142-.398-2.061.268-2.035.388-3.291.355-3.767l-.005-.087c-.004-.058.023-.089.08-.093.395-2.782,1.128-5.037,2.202-6.762l.086-.005c.848.522,1.273.813,1.277.871m-1.135-7.844l.088-.007c.316.182.533.4.653.654.014.217-.086.454-.3.716l.011.174.098.167c-.203.231-.699,1.048-1.489,2.45-1.614,1.674-2.949,2.547-4.002,2.618-.375.025-.644-.101-.809-.381l-.035-.519c-.025-.376.193-1.029.652-1.959,1.906-2.507,3.619-3.811,5.134-3.913m-46.796-2.17c1.468-1.897,2.469-2.864,3.004-2.9l.052.432c-.443,1.625-.856,2.61-1.239,2.955-.89,1.64-2.236,3.008-4.033,4.1l-.179-.074c.083-.702.882-2.207,2.396-4.513m-30.042.774c-.109-.544.261-1.62,1.111-3.23-.061-.242,1.054-.512,3.341-.811l1.343-.09c1.954.159,3.035.596,3.242,1.307l.121.514c.021.086-.272.475-.879,1.169-.477.685-1.184,1.276-2.123,1.774-1.761,1.191-3.09,1.817-3.987,1.877l-.67.045c-.83-.045-1.323-.354-1.477-.923l-.061-.258c-.15-.512-.137-.969.038-1.373m16.254,9.399c-1.664,1.793-3.023,2.725-4.077,2.797l-.174.012c-.1.007-.162-.047-.185-.162l-.041-.606c.056-.685.326-1.429.808-2.23,1.487-1.841,2.915-3.038,4.285-3.594.521-.036.804.294.849.986l.007.088c.04.606-.451,1.511-1.472,2.71m42.236-.309l-.175.011c-.1.007-.162-.047-.185-.161l-.039-.607c.02-.251.078-.511.156-.778l.11-.11,1.437-2.251c.005-.046.01-.084.014-.13,1.162-1.251,2.287-2.115,3.375-2.555.519-.034.802.294.849.987l.006.087c.039.606-.451,1.51-1.473,2.71-1.663,1.795-3.023,2.727-4.076,2.797"/><path class="cls-1" d="m124.652,15.48c.418-.028,1.037-.331,1.854-.908,1.628-1.254,2.521-2.215,2.68-2.878l-.018-.26c-.03.002-.35-.034-.965-.109-.784.401-1.398.789-1.836,1.167-1.79,1.022-2.669,1.747-2.64,2.18.035.505.343.775.925.808"/><path class="cls-1" d="m249.92.715l-.057-.715-.82.064.03.387-.264.022c-.22.097-.353.149-.401.152-.237-.127-.352-.15-.347-.07-.273.022-.341-.022-.204-.128-.177.012-.317-.008-.418-.066-.393.161-.579.362-.56.603l-.387.031c-.576-.328-.861-.45-.854-.372-.033.005-.051-.018-.054-.067l.006.072.143.281-.276.191c-.277-.221-.503-.325-.681-.311-.208.243-.432.374-.674.394l-.29.022.103-.565-1.148.089c.33.023.513.192.54.515-.312.025-.517-.152-.628-.508l-.358.028c.135-.027.249-.036.355-.037-.02-.065-.043-.127-.057-.205l-.286.071-.222.26.288-.024c.02.242-.068.371-.26.385-.566-.409-1.027-.599-1.382-.571l.173.162c-.005.101-.026.258-.071.511l-.482.036-.026-.039-.028-.344-.197.016-.188-.276-2.268.177c-.08.006-.137.238-.165.693l-.338.026-.025-.313-.025.003c-.14-.15-.272-.181-.394-.09l-.5-.179c-.376.176-.651.269-.828.282-.008-.095-.086-.17-.235-.224l-.571.169-1.932.151c-.321.025-.826.104-1.511.239-.006-.08-.075-.115-.203-.106-.121.091-.232.14-.328.148l-.479-.207-1.452.359-.203-.105c-.314.105-.588.166-.829.185-.29.021-.711.015-1.271-.019l-1.028.201c.006.08.024.118.057.116-.006-.08-.067-.115-.179-.107l-1.254.099-1.198.215-.116-.233-1.188.312-.588-.051-3.169.468-.716-.137.006.07c-.144.013-.687.023-1.623.032-.163.012-.343.099-.539.261-.144.011-.209.025-.192.039-1.946.153-2.473.146-1.579-.023-.275.022-.535.012-.781-.034-.236.083-.491.136-.764.158l-.676.053c-.16.012-.292-.009-.393-.067-.093.072-.219.114-.38.128l-1.157.091c-.259.018-.51.12-.756.302-.432-.129-.823-.179-1.176-.152-.258.022-.742.14-1.455.359l-.177-.084c-.09.071-.218.114-.377.127l-.387.031c-.304.023-.631.008-.974-.047-1.135.188-1.763.35-1.881.488-.418.035-.911.033-1.482-.005l-.473.159-1.505.338c-5.15.809-7.882,1.3-8.192,1.471l-1.568.123c-.146.011-.243-.087-.29-.293,1.114-2.291,1.655-3.652,1.62-4.087-.014-.177-.181-.439-.497-.787l-.547.165-.493-.082-.136.109c-.53,1.515-.902,2.442-1.119,2.783.033.42-.385,1.374-1.256,2.868-2.042.388-5.663,1.369-10.867,2.945l-.199.55-.051.587c.189.341.575.633,1.162.88l8.203-2.249c.135.071.251.103.349.095.019.256-.162.839-.543,1.742-.348.53-.579,1.302-.692,2.314-.38.532-.582,1.27-.604,2.212-.178.593-.306,1.132-.43,1.666-.062.046-.118.081-.18.13-1.665.26-3.429,1.095-5.293,2.505-.89.62-1.501,1.088-1.832,1.407l-.2-.083c-1.277-1.405-1.973-2.84-2.088-4.305-.044-.545.509-.945,1.656-1.199.127-.009.198.049.207.178.038.452-.045,1.074-.242,1.865.208.373.48.545.82.518.124-.074.218-.114.281-.117.514-.042.873-.848,1.073-2.416-.074-.934-.698-1.469-1.876-1.603-.781.143-1.603.402-2.464.778-.839.065-1.262.845-1.273,2.335.011.137.067.298.096.447-1.979,1.77-3.18,2.747-3.583,2.907.073-.932.054-1.549-.062-1.837-.544-.945-.864-1.396-.957-1.356-.242-.597-1.33-.737-3.265-.424l-.309.097c-.362.127-.532.213-.514.259-.619.202-1.12.459-1.527.761l.014-.251-.557.043-.04.391c-.428.554-.707.988-.845,1.307-2.163,3.181-3.719,4.81-4.667,4.885l-.243.019c-.08.008-.209-.307-.388-.941.138-2.149.19-3.352.153-3.607l-.008-.095c-.492-1.322-1.141-1.952-1.946-1.89l-1.598.685-2.129,1.965c-.728,1.029-1.125,1.545-1.189,1.551-.379.601-.761,1.052-1.145,1.39.27-1.455.936-3.81,2.006-7.093.104-1.158.407-2.241.911-3.253.8-3.204,1.287-5.04,1.462-5.509-.209-.176-.48-.317-.812-.419-.418.033-.854.877-1.307,2.53-1.657,5.07-2.567,8.008-2.73,8.815-.26,1.007-.682,2.238-1.265,3.692l.152-.01c-.712,2.516-1.063,3.866-1.049,4.042l.056.408c-.144.013-.297.55-.455,1.615.023-.003.009-.04.024-.051-.013.073-.023.177-.027.318.053.481.551.719,1.489.709.82-.89,1.57-2.163,2.249-3.822,2.329-3.339,4.07-5.283,5.227-5.827.11-.009.184.1.218.324-.149,1.793-.189,2.946-.116,3.458l.172,1.25c.61,1.166,1.471,1.704,2.58,1.616.66-.051,1.532-.596,2.615-1.636l1.353-1.388c.048.146.091.292.151.443.229.418.459.798.696,1.137,1.093,1.112,2.325,1.443,3.699.995.232-.13.434-.229.608-.291.595-.469,1.433-1.35,2.512-2.65.553-.173,1.211-.55,1.977-1.127,1.267-1.198,2.186-2.189,2.773-2.984.44,1.023,1.172,2.19,2.272,3.534l.016.193-.083.2c-2.057,1.848-3.403,3.249-4.041,4.206-.902.896-1.329,1.609-1.289,2.141l.038.482c.072.902.985,1.413,2.744,1.534,1.431-.324,2.645-.97,3.637-1.938,1.3-.977,2.083-2.139,2.35-3.489-.084-1.061-.418-2.007-1.001-2.836l.348-.513c2.564-1.714,4.455-2.975,5.706-3.806-.059.359-.137.738-.167,1.064.005.064.047.167.121.305-.03.425-.036.773-.014,1.048l.053.675-.167.354.016.193c.214.258.332.525.354.798l.019.241-.083.202c.359.425.55.782.572,1.071.671.709,1.682,1.107,3.034,1.194,1.156-.091,2.513-.766,4.067-2.021.783-.546,1.358-1.045,1.727-1.496.525-.278,1.261-1.009,2.206-2.184l.054.332c.832,1.942,2.247,2.833,4.243,2.677.361-.143.702-.227,1.026-.252,2.018-.563,3.672-1.71,4.96-3.441-.01.251-.023.494-.023.771l.188,1.15c.824,1.619,2.017,2.367,3.578,2.245l.482-.04c2.158-.168,4.409-1.592,6.757-4.27,1.666-1.671,2.654-3.415,2.965-5.239-.008-.097-.153-.179-.436-.256l-.835,1.427c-1.281,1.216-1.964,1.967-2.058,2.249-.801.922-1.693,1.746-2.67,2.47-1.444,1.231-2.831,1.898-4.166,2.003l-.387.031c-.837.065-1.317-.285-1.444-1.053l-.141-.863c.026-2.156.176-3.528.455-4.117-.062-.351.938-1.044,2.994-2.083,1.894-1.426,3.29-2.93,4.186-4.504.748-.983,1.21-2.638,1.383-4.969-.004-.022-.016-.035-.02-.058l1.72-.268.475.181c.331-.108.617-.172.86-.189l.385-.031c1.384-.108,3.061-.313,5.028-.616.135.072.228.104.275.101l1.325-.444c.447.11.741.16.887.147l.385-.029c.439-.179.692-.273.757-.278l.579-.045c.29-.024.527.015.713.112-.008-.11.172-.181.542-.211.161-.012.3.009.418.064.316-.089.594-.144.837-.164l2.147-.169.177.083c.743-.431,1.18-.651,1.31-.661l.095-.008c.193-.014.401.043.62.171.08-.006.217-.131.408-.374l.169-.012c.109.154.621.266,1.533.34.665-.198,1.078-.303,1.239-.315l.492.059.345-.246.708.064c.188-.013.486-.089.833-.192.059.024.115.035.177.065l.048-.134c.096-.03.168-.049.276-.084.129-.011.186-.015.169-.015.29-.023.438.008.444.087.8-.127,1.259-.277,1.374-.447l.193-.016.018.217.626-.05c-.004-.08-.012-.16-.017-.241l.565.101c.097-.008.243-.101.439-.278.177-.014.375.028.595.124.012.16.233.087.661-.222l.123-.01c.273-.022.62-.008,1.046.038l.37-.247c.373.035.674.045.9.028l.482-.038c.037-.005.251-.082.637-.233l.019.23.82-.064-.004-.069c.022.003.053.015.074.014l-.079-.076Zm-87.173,24.432c-.425.146-.787.192-1.081.132-.41-.048-.806-.559-1.192-1.533l-.087-.211c-.225-.549-.251-1.121-.124-1.714l.336-.537c.013-.175.03-.328.047-.481.042-.078.066-.156.114-.235l.023-.002c.065.189.118.459.163.812.063.172.115.251.163.231.419.999,1.406,1.785,2.968,2.358-.067.201-.506.595-1.329,1.181m2.521-2.87l-.238.066c-.868.297-1.613-.13-2.239-1.28-.439-1.068-.083-1.791,1.068-2.174.158-.06.254-.043.295.051.585-.193,1.137.241,1.656,1.303.084.64-.098,1.318-.542,2.034m9.227,5.541c-1.46,1.604-2.723,2.449-3.784,2.532-.419.033-.651-.047-.699-.237l-.008-.097c-.05-.643,1.372-2.341,4.264-5.096l.385-.03c.162.408.25.692.263.853l.06.772c-.328.789-.487,1.222-.481,1.304m24.966-12.411c-.543,1.377-1.677,2.451-3.368,3.234,1.131-1.953,2.265-3.102,3.4-3.429-.048.003-.061.035-.04.1l.008.095Zm.955,5.791c-.854.382-1.72.649-2.598.8-1.304.103-1.985-.217-2.043-.959l-.027-.336,1.047-.593c.999-.256,2.216-1.364,3.648-3.323.388-.646.545-1.411.476-2.297-.526-.509-.991-.748-1.393-.717-.757.06-1.714.558-2.87,1.49-.257.241-.457.469-.68.701.013-.123.042-.235.051-.361l-.162-.205c-.965,1.711-1.832,3.05-2.599,4.017-.603.582-1.302,1.163-2.097,1.744-2.7,2.106-4.574,3.202-5.62,3.285-.917.072-1.493-.361-1.728-1.299l-.08-1.012c-.064-.805-.029-1.601.103-2.389-.077-.138-.117-.25-.123-.33-.016-.194.448-2.133,1.389-5.818.872-2.076,1.302-3.202,1.288-3.379.408-.795.587-1.196.536-1.208,6.447-1.22,11.744-2.115,15.894-2.685l.975.044c.161-.011.476-.117.947-.318l.59.076,3.289-.478c.12.074.277.103.469.086.583-.208,1.059-.326,1.429-.356l.159-.011c-.82.839-1.748,2.031-2.791,3.597-1.447,1.976-2.15,3.325-2.109,4.05-.517.852-.758,1.388-.724,1.612-.29.024-.49.262-.6.717-.08.328-.077.753-.036,1.219-.251.366-.451.73-.583,1.101-1.43,1.974-2.573,3.154-3.424,3.536m11.491-12.163c-.973,1.841-2.454,3.383-4.448,4.625l-.199-.081c.083-.785.956-2.471,2.613-5.065,1.613-2.134,2.717-3.225,3.313-3.273l.062.48c-.474,1.82-.92,2.925-1.342,3.314"/></g></svg>